<svg width="18" height="18" viewBox="0 0 18 18" fill="none" xmlns="http://www.w3.org/2000/svg">
<path fill-rule="evenodd" clip-rule="evenodd" d="M13.4172 6.72108C13.4172 8.19234 12.9385 9.55238 12.1275 10.6555L13.0258 11.6115C13.3995 11.4975 13.8225 11.5952 14.1074 11.8984L17.6183 15.6347C18.0164 16.0584 17.994 16.7227 17.5682 17.1185L16.9761 17.669C16.5503 18.0648 15.8824 18.0422 15.4843 17.6186L11.9734 13.8823C11.7243 13.6172 11.6399 13.2579 11.7159 12.9291L11.6933 12.9501L10.8056 12.0054C9.67231 12.8759 8.25127 13.3938 6.7086 13.3938C3.00354 13.3938 0 10.4063 0 6.72108C0 3.03583 3.00354 0.0483398 6.7086 0.0483398C10.4137 0.0483398 13.4172 3.03583 13.4172 6.72108ZM2.33993 6.72108C2.33993 9.12093 4.29585 11.0664 6.7086 11.0664C9.12135 11.0664 11.0773 9.12093 11.0773 6.72108C11.0773 4.32123 9.12135 2.37576 6.7086 2.37576C4.29585 2.37576 2.33993 4.32123 2.33993 6.72108Z" fill="#24272A"/>
</svg>
